<svg width="214" height="103" viewBox="0 0 214 103" fill="none" xmlns="http://www.w3.org/2000/svg">
<g clip-path="url(#clip0_2645_63477)">
<mask id="mask0_2645_63477" style="mask-type:luminance" maskUnits="userSpaceOnUse" x="50" y="33" width="114" height="39">
<path d="M164 33.6602H50V71.6602H164V33.6602Z" fill="white" style="fill:white;fill-opacity:1;"/>
</mask>
<g mask="url(#mask0_2645_63477)">
<path fill-rule="evenodd" clip-rule="evenodd" d="M57.2264 46.4077C57.0779 46.5721 56.9244 46.742 56.7608 46.9179V46.9122V33.6528C55.1149 34.5202 53.4116 34.5081 51.7153 34.496C51.1438 34.492 50.5731 34.4879 50.0057 34.5175V35.6141H53.3164V36.2354C53.3164 37.9686 53.3167 39.702 53.3171 41.4355V41.4366C53.3181 46.6383 53.3192 51.8412 53.3107 57.042C53.3107 57.5875 53.2774 58.133 53.2441 58.6785C53.2207 59.0635 53.1972 59.4486 53.1854 59.8336C53.174 60.1744 53.0431 60.2803 52.7129 60.2602C52.398 60.2423 52.0803 60.2466 51.7628 60.2508C51.6239 60.2526 51.4851 60.2545 51.3465 60.2545H50V61.3568H56.3964C56.4904 60.5351 56.5843 59.7248 56.6839 58.8659C56.7159 58.9141 56.7457 58.9584 56.7739 59.0003C56.8261 59.0777 56.8731 59.1475 56.9174 59.2181C57.5152 60.1859 58.3464 60.873 59.3997 61.2824C62.9694 62.6768 67.2109 61.082 69.1266 57.6376C70.254 55.6105 70.6183 53.423 70.4561 51.1382C70.3337 49.4089 69.8725 47.7769 68.8449 46.3395C66.3967 42.9066 60.8941 42.7921 58.1016 45.4806C57.8031 45.7693 57.5249 46.0773 57.2264 46.4077ZM56.7556 52.64C56.7582 52.3391 56.7608 52.0376 56.7608 51.7366L56.7551 51.7424C56.7545 51.5118 56.7533 51.2812 56.7521 51.0507L56.7521 51.0496C56.7479 50.2415 56.7437 49.4333 56.7637 48.6272C56.7693 48.3867 56.8576 48.1118 56.9971 47.9172C58.3236 46.0418 60.5668 45.1828 62.7587 45.6868C64.6261 46.1162 65.7022 47.4018 66.2715 49.1311C67.1141 51.6851 67.134 54.2905 66.4452 56.8875C66.1405 58.0327 65.5712 59.0377 64.5778 59.7335C61.7339 61.729 57.7714 60.1772 57.0028 56.7557C56.8547 56.0915 56.795 55.3986 56.7693 54.7143C56.7436 54.0239 56.7496 53.3322 56.7556 52.64ZM129.107 45.5852H134.179L134.182 45.5795C134.102 45.869 134.022 46.1543 133.942 46.4367L133.942 46.4377C133.751 47.1159 133.564 47.7778 133.394 48.4426C132.851 50.546 132.312 52.6494 131.772 54.7525L131.771 54.7571L131.77 54.7608L131.768 54.7684L131.767 54.774C131.023 57.6738 130.279 60.5731 129.528 63.4714C129.101 65.1121 128.617 66.7383 127.743 68.2099C127.083 69.3237 126.234 70.2085 124.913 70.4834C124.057 70.6608 123.211 70.658 122.42 70.2028C122.547 70.164 122.674 70.1543 122.8 70.1447C122.831 70.1422 122.863 70.1398 122.895 70.1369C123.795 70.0567 124.435 69.5471 124.629 68.7626C124.891 67.7032 124.395 66.661 123.465 66.306C122.377 65.8908 121.125 66.3288 120.624 67.2995C119.832 68.8427 120.592 70.741 122.266 71.3423C123.829 71.9063 125.355 71.6744 126.824 71.0016C128.691 70.1455 129.98 68.6538 131.045 66.9473C132.517 64.5824 133.465 61.9883 134.185 59.3141C135.185 55.6012 136.141 51.874 137.096 48.148C137.278 47.441 137.459 46.7331 137.641 46.0261C137.729 45.6768 137.866 45.5709 138.219 45.5737C139.668 45.5892 141.116 45.5877 142.565 45.5862C143 45.5857 143.434 45.5852 143.869 45.5852C143.979 45.5852 144.088 45.5935 144.189 45.6012L144.241 45.6051L144.285 45.6081V60.2733H141.262V61.3584H150.804V60.2532H147.766V43.7213C147.523 43.788 147.287 43.8676 147.053 43.9461C146.555 44.1133 146.073 44.2754 145.583 44.2968C143.803 44.3737 142.019 44.3948 140.235 44.4159C139.56 44.4238 138.885 44.4318 138.21 44.4428C138.193 44.4428 138.176 44.4315 138.151 44.4148C138.138 44.4063 138.123 44.3962 138.105 44.3856C138.113 44.3494 138.12 44.3121 138.127 44.2744C138.144 44.1868 138.162 44.0954 138.187 44.0077C138.313 43.5943 138.433 43.1791 138.553 42.7637L138.553 42.7623C138.84 41.7711 139.128 40.7792 139.483 39.8131C139.827 38.8768 140.274 37.9549 140.823 37.1246C141.868 35.5498 143.422 35.043 145.241 35.3494C145.512 35.3947 145.771 35.5052 146.031 35.6153C146.148 35.6652 146.264 35.7151 146.383 35.7588C146.127 35.8619 145.916 35.8619 145.706 35.8619C144.729 35.8705 143.96 36.5519 143.835 37.5225C143.716 38.4617 144.2 39.3435 145.025 39.6814C145.978 40.0708 147.075 39.7787 147.689 38.9684C148.666 37.68 148.207 35.6329 146.75 34.7939C145.486 34.0667 144.123 34.0896 142.765 34.3902C140.61 34.8684 139.019 36.2055 137.709 37.9205C136.303 39.7615 135.383 41.8517 134.666 44.0362C134.555 44.377 134.396 44.4714 134.057 44.4686C132.976 44.4539 131.896 44.4561 130.815 44.4583C130.422 44.4592 130.029 44.46 129.636 44.46H129.107V45.5852ZM108.169 60.2705H111.195V61.3614H101.975V60.2734H104.711C104.715 60.2003 104.721 60.1335 104.726 60.0707C104.734 59.9686 104.742 59.877 104.742 59.7866C104.742 58.6179 104.743 57.4489 104.743 56.2797V56.2588C104.745 53.9062 104.746 51.5532 104.742 49.2015C104.742 47.976 104.463 46.8451 103.356 46.1321C102.302 45.4564 101.138 45.4764 99.9653 45.7456C98.6843 46.0377 97.6139 46.7191 96.7143 47.6639C96.5749 47.8099 96.4838 48.062 96.4838 48.2652C96.4767 50.1894 96.4752 52.1144 96.4738 54.0393C96.4724 55.9639 96.471 57.8885 96.4638 59.8124C96.4638 60.1903 96.5891 60.2762 96.9365 60.2677C97.4625 60.2516 97.9898 60.2551 98.5283 60.2587C98.7617 60.2603 98.9981 60.2619 99.2365 60.2619V61.3642H89.9222V60.2619H93.0052V45.6024H89.9336V44.4829C90.4608 44.4559 90.992 44.4567 91.5245 44.4577C93.1833 44.4606 94.8557 44.4636 96.4611 43.6182V46.9195L96.6238 46.7374C96.8192 46.5187 96.9672 46.353 97.1186 46.1894C98.9462 44.231 101.172 43.3377 103.842 43.6927C106.373 44.0305 108.075 45.9031 108.132 48.5315C108.178 50.6561 108.174 52.7821 108.17 54.9077V54.9087C108.168 55.8534 108.167 56.7981 108.169 57.7423V60.2705ZM115.672 51.406H127.67C127.652 51.2624 127.637 51.1284 127.623 51.0007C127.597 50.764 127.573 50.549 127.536 50.3351C127.195 48.351 126.418 46.5901 124.849 45.2759C121.356 42.3469 115.899 43.3805 113.519 47.4032C112.113 49.7797 111.755 52.345 112.241 55.0393C112.956 58.9848 115.959 61.5988 119.939 61.7506C122.512 61.8479 124.735 61.1006 126.369 58.9933C127.24 57.8681 127.753 56.5797 127.995 55.1739C127.418 55.1014 127.036 55.3132 126.85 55.8095C126.759 56.0529 126.665 56.2963 126.551 56.5282C125.575 58.5496 123.961 59.5803 121.732 59.6118C119.472 59.6433 117.744 58.7213 116.674 56.6685C116.005 55.3857 115.74 53.9999 115.672 52.5684C115.662 52.3231 115.665 52.0767 115.668 51.8183V51.8171C115.67 51.6837 115.672 51.5471 115.672 51.406ZM123.706 50.1178L123.719 50.2492H123.716H115.674C115.679 50.2068 115.684 50.1647 115.688 50.1231C115.693 50.0813 115.697 50.0398 115.701 49.9987C115.723 49.7887 115.744 49.587 115.777 49.3874C115.942 48.3538 116.244 47.366 116.816 46.4784C117.889 44.8178 120.001 44.2079 121.593 45.17C122.054 45.4477 122.467 45.8972 122.751 46.3611C123.451 47.4945 123.578 48.7944 123.706 50.1178ZM88.6686 51.4261H76.6102C76.6557 53.854 76.9147 56.1446 78.5886 58.0171C80.6069 60.2761 85.8105 60.5482 87.5925 56.4051C87.6779 56.2105 87.7548 56.01 87.8288 55.8096C88.0129 55.3095 88.3962 55.1005 88.9789 55.1826C88.7426 56.5082 88.2729 57.7308 87.4816 58.816C85.8419 61.0664 83.5474 61.8623 80.8687 61.7507C76.7496 61.576 73.644 58.6785 73.1287 54.5384C72.8042 51.9243 73.2027 49.4591 74.6261 47.2057C76.8948 43.6125 81.6629 42.5044 85.1757 44.7922C87.0289 46.0004 87.9968 47.8128 88.4352 49.9401C88.5006 50.2594 88.5467 50.5829 88.5976 50.9397C88.6198 51.0947 88.6428 51.2561 88.6686 51.4261ZM84.7744 50.2465C84.71 49.9261 84.6524 49.6123 84.596 49.3042C84.4753 48.6461 84.3595 48.0139 84.1908 47.3976C83.9403 46.4843 83.4791 45.674 82.6223 45.1758C81.0196 44.2452 78.9416 44.7864 77.8513 46.407C77.2535 47.2974 76.9347 48.2938 76.7696 49.3446C76.7368 49.5545 76.713 49.7674 76.6884 49.9865C76.6787 50.0721 76.669 50.1587 76.6585 50.2465H84.7744ZM157.478 39.332H156.408V39.3348C156.401 39.4736 156.395 39.6076 156.39 39.7382C156.379 40.0282 156.369 40.3013 156.339 40.5717C156.174 42.0691 155.611 43.3375 154.159 43.9732C153.601 44.2166 152.969 44.331 152.357 44.4027C151.924 44.4544 151.482 44.4425 151.034 44.4304C150.839 44.4251 150.642 44.4199 150.444 44.4199V45.6052H154.036V46.1606C154.036 47.2904 154.036 48.4205 154.035 49.5508C154.035 51.8121 154.034 54.0742 154.036 56.3364C154.036 56.8087 154.039 57.284 154.076 57.7564C154.233 59.7778 155.331 61.1808 157.276 61.5817C158.173 61.7678 159.161 61.7678 160.069 61.6131C162.451 61.2095 163.806 59.085 164 56.9462C163.254 56.7773 163.209 56.803 163.003 57.4787C162.523 59.0535 161.412 59.8122 159.73 59.7149C158.48 59.6405 157.705 58.9275 157.532 57.6792C157.495 57.4215 157.475 57.1609 157.475 56.9032V46.1319V45.5851H163.444V44.4599H162.875C162.461 44.4599 162.047 44.4594 161.633 44.4588C160.391 44.4572 159.15 44.4556 157.908 44.4685C157.569 44.4713 157.464 44.3711 157.47 44.0276C157.484 43.0974 157.482 42.1673 157.479 41.2372C157.479 40.8989 157.478 40.5607 157.478 40.2224V39.332Z" fill="#11190C" style="fill:#11190C;fill:color(display-p3 0.0667 0.0980 0.0471);fill-opacity:1;"/>
</g>
</g>
<defs>
<clipPath id="clip0_2645_63477">
<rect width="114" height="38" fill="white" style="fill:white;fill-opacity:1;" transform="translate(50 33.6602)"/>
</clipPath>
</defs>
</svg>
