<svg width="214" height="103" viewBox="0 0 214 103" fill="none" xmlns="http://www.w3.org/2000/svg">
<path fill-rule="evenodd" clip-rule="evenodd" d="M63.6781 63.2686V67.229C63.6781 68.0182 63.4364 68.5163 62.6325 68.5163C61.8828 68.5163 61.5277 68.0625 61.5277 67.4312V67.2241L61 67.3178V67.4608C61 68.4818 61.6066 68.9996 62.6374 68.9996C63.7915 68.9996 64.2108 68.2796 64.2108 67.1846V63.2637" fill="#11190C"/>
<path fill-rule="evenodd" clip-rule="evenodd" d="M63.6781 63.2686V67.229C63.6781 68.0182 63.4364 68.5163 62.6325 68.5163C61.8828 68.5163 61.5277 68.0625 61.5277 67.4312V67.2241L61 67.3178V67.4608C61 68.4818 61.6066 68.9996 62.6374 68.9996C63.7915 68.9996 64.2108 68.2796 64.2108 67.1846V63.2637" fill="#11190C"/>
<path fill-rule="evenodd" clip-rule="evenodd" d="M71.8456 69.0044H75.7912V68.4915H72.3979V66.2128H75.3029V65.695H72.3979V63.5989H75.6186V63.0859H71.8456" fill="#11190C"/>
<path fill-rule="evenodd" clip-rule="evenodd" d="M71.8456 69.0044H75.7912V68.4915H72.3979V66.2128H75.3029V65.695H72.3979V63.5989H75.6186V63.0859H71.8456" fill="#11190C"/>
<path fill-rule="evenodd" clip-rule="evenodd" d="M85.384 69.0044H85.8082L87.125 64.2302H87.1447L88.5257 69.0044H88.9647L90.5873 63.0859H90.03L88.7723 67.9736H88.7575L87.3519 63.0859H86.9524L85.5862 68.0081H85.5665L84.2496 63.0859H83.6824" fill="#11190C"/>
<path fill-rule="evenodd" clip-rule="evenodd" d="M85.384 69.0044H85.8082L87.125 64.2302H87.1447L88.5257 69.0044H88.9647L90.5873 63.0859H90.03L88.7723 67.9736H88.7575L87.3519 63.0859H86.9524L85.5862 68.0081H85.5665L84.2496 63.0859H83.6824" fill="#11190C"/>
<path fill-rule="evenodd" clip-rule="evenodd" d="M97.9854 69.0044H101.931V68.4915H98.5377V66.2128H101.443V65.695H98.5377V63.5989H101.758V63.0859H97.9854" fill="#11190C"/>
<path fill-rule="evenodd" clip-rule="evenodd" d="M97.9854 69.0044H101.931V68.4915H98.5377V66.2128H101.443V65.695H98.5377V63.5989H101.758V63.0859H97.9854" fill="#11190C"/>
<path fill-rule="evenodd" clip-rule="evenodd" d="M109.329 69.0044H113.275V68.4915H109.911V63.0859H109.329" fill="#11190C"/>
<path fill-rule="evenodd" clip-rule="evenodd" d="M109.329 69.0044H113.275V68.4915H109.911V63.0859H109.329" fill="#11190C"/>
<path fill-rule="evenodd" clip-rule="evenodd" d="M121.166 69.0044H125.112V68.4915H121.718V66.2128H124.628V65.695H121.718V63.5989H124.944V63.0859H121.166" fill="#11190C"/>
<path fill-rule="evenodd" clip-rule="evenodd" d="M121.166 69.0044H125.112V68.4915H121.718V66.2128H124.628V65.695H121.718V63.5989H124.944V63.0859H121.166" fill="#11190C"/>
<path fill-rule="evenodd" clip-rule="evenodd" d="M133.067 63.5979H134.887C135.878 63.5979 136.238 64.0369 136.238 64.7274C136.238 65.2502 135.977 65.8568 134.798 65.8568H133.067V63.593V63.5979ZM132.51 69.0035H133.067V66.3747H134.394L136.243 69.0035H136.948L135.084 66.35C136.14 66.276 136.796 65.7434 136.796 64.7274C136.796 63.8988 136.297 63.0801 135.094 63.0801H132.515V68.9985L132.51 69.0035Z" fill="#11190C"/>
<path fill-rule="evenodd" clip-rule="evenodd" d="M133.067 63.5979H134.887C135.878 63.5979 136.238 64.0369 136.238 64.7274C136.238 65.2502 135.977 65.8568 134.798 65.8568H133.067V63.593V63.5979ZM132.51 69.0035H133.067V66.3747H134.394L136.243 69.0035H136.948L135.084 66.35C136.14 66.276 136.796 65.7434 136.796 64.7274C136.796 63.8988 136.297 63.0801 135.094 63.0801H132.515V68.9985L132.51 69.0035Z" fill="#11190C"/>
<path fill-rule="evenodd" clip-rule="evenodd" d="M144.84 67.4449C145.057 68.5842 145.885 69.0035 147.079 69.0035C148.455 69.0035 149.279 68.387 149.279 67.2772C149.279 65.1071 145.723 66.1873 145.723 64.5153C145.723 63.8988 146.443 63.5733 147.054 63.5733C147.799 63.5733 148.406 63.8741 148.652 64.609L149.18 64.3377C148.835 63.3957 148.07 63.0801 147.054 63.0801C146.221 63.0801 145.155 63.4845 145.155 64.5104C145.155 66.7101 148.706 65.6349 148.706 67.3611C148.706 68.0516 148.011 68.5053 147.079 68.5053C146.092 68.5053 145.456 68.1108 145.407 67.1638" fill="#11190C"/>
<path fill-rule="evenodd" clip-rule="evenodd" d="M144.84 67.4449C145.057 68.5842 145.885 69.0035 147.079 69.0035C148.455 69.0035 149.279 68.387 149.279 67.2772C149.279 65.1071 145.723 66.1873 145.723 64.5153C145.723 63.8988 146.443 63.5733 147.054 63.5733C147.799 63.5733 148.406 63.8741 148.652 64.609L149.18 64.3377C148.835 63.3957 148.07 63.0801 147.054 63.0801C146.221 63.0801 145.155 63.4845 145.155 64.5104C145.155 66.7101 148.706 65.6349 148.706 67.3611C148.706 68.0516 148.011 68.5053 147.079 68.5053C146.092 68.5053 145.456 68.1108 145.407 67.1638" fill="#11190C"/>
<path fill-rule="evenodd" clip-rule="evenodd" d="M140.08 59.1388V48.4856L149.279 33.9854H145.723L141.254 41.3785C140.268 43.0258 139.429 44.5153 138.739 45.8371C138.019 44.4068 137.239 42.9864 136.391 41.5709L131.854 33.9805H128.145L137.027 48.4807V59.1339H140.08V59.1388ZM103.933 41.4377C104.466 39.8447 104.875 38.2417 105.171 36.629C105.522 37.9902 106.069 39.7263 106.799 41.8471L109.211 48.8111H101.393L103.933 41.4377ZM97.9755 59.1388L100.511 51.5188H110.167L112.851 59.1388H116.328L106.888 33.9854H103.618L94.745 59.1388H97.9755ZM64.5412 59.1388V50.4239L68.3339 46.424L76.5261 59.1388H80.5506L70.4596 44.1849L80.1264 33.9854H75.9885L64.5412 46.4635V33.9854H61.4883V59.1388H64.5412Z" fill="#11190C"/>
<path fill-rule="evenodd" clip-rule="evenodd" d="M151.893 34.381V33.7941H152.366C152.573 33.7941 152.795 33.8237 152.795 34.0801C152.795 34.4155 152.435 34.381 152.203 34.381H151.893ZM152.479 34.5437C152.775 34.5339 153.002 34.4155 153.002 34.09C153.002 33.9519 152.938 33.8039 152.815 33.7349C152.692 33.6609 152.553 33.656 152.41 33.656H151.69V35.3082H151.893V34.5437H152.262L152.736 35.3082H152.978L152.479 34.5437ZM152.243 35.7817C151.523 35.7817 150.941 35.1997 150.941 34.4747C150.941 33.7497 151.523 33.1776 152.243 33.1776C152.963 33.1776 153.54 33.7595 153.54 34.4747C153.54 35.1898 152.958 35.7817 152.243 35.7817ZM152.243 35.9592C153.061 35.9592 153.717 35.2983 153.717 34.4747C153.717 33.651 153.056 33 152.243 33C151.429 33 150.758 33.6609 150.758 34.4747C150.758 35.2885 151.419 35.9592 152.243 35.9592Z" fill="#11190C"/>
</svg>
