<svg width="214" height="103" viewBox="0 0 214 103" fill="none" xmlns="http://www.w3.org/2000/svg">
<g clip-path="url(#clip0_793_175)">
<path d="M70.2049 45.9148V48.6312H78.6676V53.533H70.2049V61.5094H64.361V40.7139H80.1957V45.9148H70.2049Z" fill="#11190C" style="fill:#11190C;fill:color(display-p3 0.0667 0.0980 0.0471);fill-opacity:1;"/>
<path d="M110.402 40.7139L104.792 61.5155H98.2484L96.9624 55.3521C96.4374 52.8392 95.945 50.2957 95.5604 47.7542C95.1535 50.2957 94.655 52.8412 94.1361 55.3521L92.8481 61.5155H86.2981L80.6902 40.7139H86.7946L88.1396 46.7023C88.75 49.4492 89.395 52.3122 89.8915 55.0307C90.3595 52.3122 90.8865 49.4492 91.44 46.7023L92.6609 40.7139H98.4234L99.6443 46.7023C100.2 49.4492 100.725 52.3122 101.193 55.0307C101.689 52.3122 102.332 49.4492 102.947 46.7023L104.296 40.7139H110.402Z" fill="#11190C" style="fill:#11190C;fill:color(display-p3 0.0667 0.0980 0.0471);fill-opacity:1;"/>
<path d="M119.107 54.5036H116.655V61.5155H110.809V40.7139H120.8C125.592 40.7139 128.776 43.1393 128.776 47.3758C128.776 50.2672 127.287 52.3712 124.833 53.3926L129.594 61.5155H123.083L119.107 54.5036ZM116.655 50.0739H120.365C121.911 50.0739 122.963 49.0992 122.963 47.6667C122.963 46.2343 121.911 45.2718 120.362 45.2718H116.655V50.0739Z" fill="#11190C" style="fill:#11190C;fill:color(display-p3 0.0667 0.0980 0.0471);fill-opacity:1;"/>
<path d="M149.869 51.1137C149.869 57.2506 146.538 61.5155 139.085 61.5155H130.001V40.7139H139.089C146.538 40.7139 149.869 44.9869 149.869 51.1137ZM143.791 51.1137C143.791 47.0543 141.746 45.6197 138.971 45.6197H135.845V56.6076H138.971C141.746 56.6076 143.791 55.1751 143.791 51.1137Z" fill="#11190C" style="fill:#11190C;fill:color(display-p3 0.0667 0.0980 0.0471);fill-opacity:1;"/>
</g>
<defs>
<clipPath id="clip0_793_175">
<rect width="85.508" height="20.8017" fill="white" style="fill:white;fill-opacity:1;" transform="translate(64.361 40.7139)"/>
</clipPath>
</defs>
</svg>
